<?xml version="1.0" standalone="no"?>
<!DOCTYPE svg PUBLIC "-//W3C//DTD SVG 20010904//EN"
 "http://www.w3.org/TR/2001/REC-SVG-20010904/DTD/svg10.dtd">
<svg version="1.0" xmlns="http://www.w3.org/2000/svg"
 width="268.000000pt" height="79.000000pt" viewBox="0 0 268.000000 79.000000"
 preserveAspectRatio="xMidYMid meet">

<g transform="translate(0.000000,79.000000) scale(0.100000,-0.100000)"
fill="#000000" stroke="none">
<path d="M2106 615 c-3 -8 -2 -15 3 -15 5 0 14 7 21 15 10 12 10 15 -3 15 -8
0 -17 -7 -21 -15z"/>
<path d="M500 584 c-126 -33 -160 -45 -156 -53 3 -4 18 -6 35 -3 22 3 33 -1
43 -17 7 -12 23 -21 35 -21 25 0 40 -17 25 -32 -5 -5 -7 -55 -4 -123 l5 -113
-27 -17 c-34 -22 -69 -13 -86 22 -12 25 -14 26 -18 8 -7 -31 -22 -45 -51 -45
l-26 -1 35 -30 c156 -133 449 -130 581 8 l33 33 -35 0 c-19 0 -40 5 -47 12 -9
9 -12 9 -12 0 0 -9 -18 -12 -57 -10 -53 2 -58 5 -77 38 l-21 35 -3 -37 c-2
-25 -8 -38 -18 -38 -21 0 -20 180 2 221 18 36 19 33 -37 62 -40 20 -44 26 -46
62 -1 22 3 43 10 47 19 12 -21 8 -83 -8z m115 -119 c1 -6 4 -20 9 -32 4 -12 2
-31 -4 -42 l-10 -21 -21 21 c-15 15 -18 27 -13 55 5 25 11 34 23 32 9 -2 16
-8 16 -13z m-102 -38 c3 -8 1 -20 -4 -28 -8 -12 -10 -12 -18 0 -10 15 -4 41 9
41 4 0 10 -6 13 -13z m89 -117 c15 -46 28 -90 28 -97 0 -23 -30 -14 -40 12 -5
14 -17 25 -28 25 -10 0 -24 -11 -30 -25 -12 -25 -26 -32 -36 -16 -9 13 55 192
67 188 6 -2 23 -41 39 -87z"/>
<path d="M1120 525 l0 -65 65 0 c51 0 65 3 65 15 0 10 10 15 30 15 20 0 30 -5
30 -15 0 -8 9 -15 19 -15 19 0 19 3 -5 62 -13 34 -24 63 -24 65 0 2 -9 3 -19
3 -15 0 -25 -14 -41 -58 -21 -57 -22 -58 -56 -54 l-34 4 0 54 c0 41 -4 54 -15
54 -12 0 -15 -14 -15 -65z m170 -1 c0 -8 -6 -14 -14 -14 -9 0 -12 7 -9 20 6
22 23 18 23 -6z"/>
<path d="M1370 525 l0 -65 39 0 c56 0 88 34 57 62 -10 10 -11 17 -2 31 15 23
-6 37 -56 37 l-38 0 0 -65z m63 30 c1 -5 -6 -11 -15 -13 -11 -2 -18 3 -18 13
0 17 30 18 33 0z m7 -55 c0 -13 -7 -20 -20 -20 -13 0 -20 7 -20 20 0 13 7 20
20 20 13 0 20 -7 20 -20z"/>
<path d="M1520 570 c-58 -58 20 -142 88 -94 15 10 22 25 22 49 0 58 -69 86
-110 45z m68 -12 c25 -25 8 -78 -25 -78 -22 0 -37 44 -24 69 13 24 31 27 49 9z"/>
<path d="M1660 525 c0 -51 3 -65 15 -65 9 0 15 9 15 25 0 14 4 25 9 25 5 0 16
-11 25 -25 13 -20 25 -25 56 -25 29 0 40 4 40 15 0 10 10 15 30 15 20 0 30 -5
30 -15 0 -8 9 -15 19 -15 19 0 19 3 -5 62 -13 34 -24 63 -24 65 0 2 -9 3 -19
3 -15 0 -25 -15 -42 -60 -12 -33 -25 -60 -29 -60 -14 0 -40 49 -30 55 16 10
12 52 -6 59 -9 3 -31 6 -50 6 l-34 0 0 -65z m65 25 c0 -8 -8 -16 -17 -18 -13
-2 -18 3 -18 18 0 15 5 20 18 18 9 -2 17 -10 17 -18z m135 -26 c0 -8 -6 -14
-14 -14 -9 0 -12 7 -9 20 6 22 23 18 23 -6z"/>
<path d="M1920 580 c0 -5 11 -10 25 -10 24 0 25 -3 25 -55 0 -42 3 -55 15 -55
12 0 15 13 15 55 0 48 2 55 20 55 11 0 20 5 20 10 0 6 -27 10 -60 10 -33 0
-60 -4 -60 -10z"/>
<path d="M2070 570 c-58 -58 20 -142 88 -94 15 10 22 25 22 49 0 58 -69 86
-110 45z m68 -12 c25 -25 8 -78 -25 -78 -22 0 -37 44 -24 69 13 24 31 27 49 9z"/>
<path d="M2210 525 c0 -51 3 -65 15 -65 9 0 15 9 15 25 0 14 4 25 9 25 5 0 16
-11 25 -25 9 -14 26 -25 37 -25 l20 0 -21 29 c-12 18 -16 32 -10 36 16 10 12
52 -6 59 -9 3 -31 6 -50 6 l-34 0 0 -65z m65 25 c0 -8 -8 -16 -17 -18 -13 -2
-18 3 -18 18 0 15 5 20 18 18 9 -2 17 -10 17 -18z"/>
<path d="M2340 580 c0 -5 5 -10 10 -10 6 0 10 -20 10 -45 0 -25 -4 -45 -10
-45 -5 0 -10 -4 -10 -10 0 -5 18 -10 40 -10 22 0 40 5 40 10 0 6 -4 10 -10 10
-5 0 -10 20 -10 45 0 25 5 45 10 45 6 0 10 5 10 10 0 6 -18 10 -40 10 -22 0
-40 -4 -40 -10z"/>
<path d="M2460 570 c-58 -58 20 -142 88 -94 15 10 22 25 22 49 0 58 -69 86
-110 45z m68 -12 c25 -25 8 -78 -25 -78 -22 0 -37 44 -24 69 13 24 31 27 49 9z"/>
<path d="M115 517 c13 -79 52 -183 90 -242 21 -33 40 -54 42 -47 3 6 13 12 23
12 10 0 22 6 27 12 4 7 8 73 8 145 l0 133 -60 0 c-33 1 -77 7 -98 15 l-38 13
6 -41z"/>
<path d="M913 534 c2 -26 -4 -32 -53 -56 -30 -14 -57 -23 -60 -20 -7 10 -120
10 -120 0 0 -4 12 -8 26 -8 22 0 24 -2 14 -15 -10 -12 -8 -13 10 -10 13 2 32
0 43 -6 15 -8 22 -8 28 2 7 11 9 10 9 -3 0 -10 5 -18 10 -18 21 0 10 -39 -12
-42 -32 -5 -35 -28 -3 -28 22 0 26 -4 23 -22 -2 -15 -11 -24 -25 -26 -33 -5
-28 -29 7 -34 27 -4 33 0 60 49 17 29 30 55 30 57 0 3 -12 6 -27 8 -17 2 -28
9 -28 18 0 11 14 16 53 18 63 4 65 -3 22 -87 l-29 -59 34 -4 c30 -3 36 0 47
27 29 67 4 229 -42 270 -18 17 -19 16 -17 -11z"/>
<path d="M390 461 c0 -12 5 -21 10 -21 6 0 10 6 10 14 0 8 -4 18 -10 21 -5 3
-10 -3 -10 -14z"/>
<path d="M417 404 c-14 -19 -17 -39 -15 -91 3 -60 5 -68 23 -68 18 0 20 8 23
62 2 34 -1 75 -5 91 l-8 30 -18 -24z"/>
<path d="M729 398 c-8 -31 -3 -130 7 -149 12 -22 13 -15 14 64 0 51 -4 87 -10
87 -5 0 -10 -1 -11 -2z"/>
<path d="M670 335 c0 -8 5 -15 10 -15 6 0 10 7 10 15 0 8 -4 15 -10 15 -5 0
-10 -7 -10 -15z"/>
<path d="M1862 320 c-10 -16 -10 -20 2 -20 8 0 17 6 20 13 5 10 7 10 12 0 3
-7 12 -13 20 -13 12 0 12 4 4 20 -6 11 -18 20 -28 20 -9 0 -23 -9 -30 -20z"/>
<path d="M1110 205 c0 -68 2 -75 20 -75 16 0 20 7 20 30 0 17 4 30 8 30 4 0
16 -13 25 -30 13 -21 26 -30 43 -30 l25 0 -26 34 c-22 29 -23 35 -10 46 18 15
19 42 3 58 -7 7 -34 12 -60 12 l-48 0 0 -75z m78 33 c-7 -19 -38 -22 -38 -4 0
10 9 16 21 16 12 0 19 -5 17 -12z"/>
<path d="M1270 205 l0 -75 50 0 c38 0 50 4 50 15 0 10 -10 15 -30 15 -20 0
-30 5 -30 15 0 10 10 15 30 15 20 0 30 5 30 15 0 10 -10 15 -30 15 -20 0 -30
5 -30 15 0 10 10 15 30 15 20 0 30 5 30 15 0 11 -12 15 -50 15 l-50 0 0 -75z"/>
<path d="M1410 205 c0 -68 2 -75 20 -75 16 0 20 7 20 30 0 27 3 30 30 30 20 0
30 5 30 15 0 10 -10 15 -30 15 -20 0 -30 5 -30 15 0 10 10 15 30 15 20 0 30 5
30 15 0 11 -12 15 -50 15 l-50 0 0 -75z"/>
<path d="M1540 205 l0 -75 50 0 c38 0 50 4 50 15 0 10 -10 15 -30 15 -20 0
-30 5 -30 15 0 10 10 15 30 15 20 0 30 5 30 15 0 10 -10 15 -30 15 -20 0 -30
5 -30 15 0 10 10 15 30 15 20 0 30 5 30 15 0 11 -12 15 -50 15 l-50 0 0 -75z"/>
<path d="M1680 205 c0 -68 2 -75 20 -75 16 0 20 7 20 30 0 17 4 30 8 30 4 0
16 -13 25 -30 13 -21 26 -30 43 -30 l25 0 -26 34 c-22 29 -23 35 -10 46 18 15
19 42 3 58 -7 7 -34 12 -60 12 l-48 0 0 -75z m78 33 c-7 -19 -38 -22 -38 -4 0
10 9 16 21 16 12 0 19 -5 17 -12z"/>
<path d="M1840 205 l0 -75 50 0 c38 0 50 4 50 15 0 10 -10 15 -30 15 -20 0
-30 5 -30 15 0 10 10 15 30 15 20 0 30 5 30 15 0 10 -10 15 -30 15 -20 0 -30
5 -30 15 0 10 10 15 30 15 20 0 30 5 30 15 0 11 -12 15 -50 15 l-50 0 0 -75z"/>
<path d="M1980 205 c0 -59 3 -75 14 -75 11 0 16 14 18 48 l3 47 30 -47 c17
-28 37 -48 47 -48 16 0 18 10 18 75 0 59 -3 75 -14 75 -10 0 -16 -14 -18 -42
l-3 -43 -24 43 c-18 30 -31 42 -48 42 -22 0 -23 -3 -23 -75z"/>
<path d="M2165 255 c-32 -31 -33 -74 -2 -103 37 -35 107 -25 107 14 0 9 -7 10
-29 1 -35 -13 -61 3 -61 38 0 35 26 51 61 38 22 -9 29 -8 29 1 0 41 -69 48
-105 11z"/>
<path d="M2280 265 c0 -8 7 -15 15 -15 11 0 15 -12 15 -45 0 -33 -4 -45 -15
-45 -8 0 -15 -7 -15 -15 0 -11 12 -15 45 -15 33 0 45 4 45 15 0 8 -7 15 -15
15 -11 0 -15 12 -15 45 0 33 4 45 15 45 8 0 15 7 15 15 0 11 -12 15 -45 15
-33 0 -45 -4 -45 -15z"/>
<path d="M2408 205 c-25 -72 -25 -75 -7 -75 11 0 22 7 25 15 8 20 64 20 64 0
0 -8 9 -15 21 -15 23 0 22 2 -13 98 -15 41 -24 52 -41 52 -18 0 -27 -13 -49
-75z m62 -1 c0 -8 -7 -14 -15 -14 -17 0 -18 2 -9 24 7 18 24 12 24 -10z"/>
</g>
</svg>
