<svg width="268" height="79" viewBox="0 0 268 79" fill="none" xmlns="http://www.w3.org/2000/svg">
<g clip-path="url(#clip0_2_4)">
<path fill-rule="evenodd" clip-rule="evenodd" d="M5.02416 0.333818H81.5333C84.1146 0.333818 86.2259 2.45799 86.2259 5.0557V73.9445C86.2259 76.5423 84.1146 78.6662 81.5333 78.6662H5.02416C2.44287 78.6662 0.331612 76.5423 0.331612 73.9445V5.0557C0.331612 2.45799 2.44287 0.333818 5.02416 0.333818Z" fill="#25302A" stroke="#FEFEFE" stroke-width="0.249999"/>
<path fill-rule="evenodd" clip-rule="evenodd" d="M15.067 44.1287L15.0656 11.6988L32.1554 11.7002L32.157 39.752C31.8315 48.0345 36.4036 51.6472 46.7968 51.4384L70.5013 51.4382L70.5001 67.3011L38.1466 67.3003C25.146 66.4952 15.4744 58.131 15.067 44.1287Z" fill="#FEFEFE"/>
<path fill-rule="evenodd" clip-rule="evenodd" d="M35.8271 39.7672L36.1842 11.7357L58.1841 11.8796C73.4856 14.4517 75.4071 30.3427 64.8985 35.8859L66.9699 39.0483H70.6126L70.47 47.6015H56.0413L52.5413 40.1984L47.1842 40.0547L47.2555 47.3858C39.5099 48.1771 35.9776 46.3557 35.8271 39.7672Z" fill="#FEFEFE"/>
<path fill-rule="evenodd" clip-rule="evenodd" d="M47.3985 23.2358H55.4698C56.8033 24.3858 56.8033 25.5359 55.4698 26.6857H47.3985V23.2358Z" fill="#25302A"/>
<path d="M103.111 15.212H106.457V29.6411H111.417V32.8857H103.111V15.212ZM112.638 32.8857L119.307 15.212H122.703L129.372 32.8857H125.911L124.531 29.1987H117.503L116.099 32.8857H112.638ZM118.765 25.9459V25.9537H123.293V25.9459L121.021 19.9067H121.025L118.765 25.9459ZM131.929 32.8857V15.212H135.394C137.67 15.212 139.285 15.6586 140.242 16.5555C141.199 17.4528 141.676 18.4934 141.676 19.6773C141.676 20.9968 141.106 22.0986 139.966 22.9876C141.936 23.9707 142.922 25.5196 142.922 27.6254C142.922 29.1042 142.433 30.3539 141.452 31.3739C140.483 32.3816 138.952 32.8857 136.859 32.8857H131.929ZM135.275 29.6411H136.435C138.561 29.6411 139.624 28.9569 139.624 27.5925C139.624 25.9579 138.382 25.1424 135.898 25.1424H135.275V29.6411ZM135.275 21.8979H135.886C137.58 21.8979 138.426 21.3082 138.426 20.1282C138.426 19.0137 137.637 18.4565 136.053 18.4565H135.275V21.8979ZM145.242 24.0487C145.242 21.484 146.138 19.2924 147.925 17.4734C149.721 15.6543 151.887 14.7448 154.419 14.7448C156.915 14.7448 159.044 15.6623 160.807 17.4979C162.578 19.3329 163.466 21.5417 163.466 24.1226C163.466 26.6709 162.578 28.8461 160.807 30.6488C159.044 32.4516 156.915 33.3529 154.419 33.3529C151.887 33.3529 149.721 32.4476 147.925 30.6363C146.138 28.8176 145.242 26.6218 145.242 24.0487ZM148.589 24.1226C148.589 25.8063 149.155 27.2361 150.283 28.412C151.419 29.5754 152.791 30.1574 154.395 30.1574C155.97 30.1574 157.318 29.5672 158.438 28.3875C159.557 27.199 160.119 25.7614 160.119 24.0732C160.119 22.3936 159.553 20.9598 158.425 19.7718C157.298 18.5833 155.938 17.9894 154.35 17.9894C152.758 17.9894 151.398 18.5714 150.27 19.7347C149.151 20.8943 148.589 22.353 148.589 24.1226ZM166.857 15.212H171.161C173.408 15.212 174.988 15.7117 175.892 16.7151C176.808 17.7109 177.264 18.9317 177.264 20.3821C177.264 22.7254 176.148 24.2906 173.917 25.0856V25.0772L178.021 32.8857H174.361L170.456 25.4377H170.204V32.8857H166.857V15.212ZM170.204 18.4565V22.193H171.694C173.241 22.193 174.015 21.5663 174.015 20.3167C174.015 19.0751 173.205 18.4565 171.584 18.4565H170.204ZM179.56 32.8857L186.229 15.212H189.625L196.294 32.8857H192.833L191.453 29.1987H184.426L183.021 32.8857H179.56ZM185.688 25.9459V25.9537H190.215V25.9459L187.943 19.9067H187.947L185.688 25.9459ZM197.043 15.212H206.888V18.4565H203.639V32.8857H200.292V18.4565H197.043V15.212ZM208.256 24.0487C208.256 21.484 209.152 19.2924 210.939 17.4734C212.735 15.6543 214.901 14.7448 217.433 14.7448C219.929 14.7448 222.058 15.6623 223.821 17.4979C225.592 19.3329 226.48 21.5417 226.48 24.1226C226.48 26.6709 225.592 28.8461 223.821 30.6488C222.058 32.4516 219.929 33.3529 217.433 33.3529C214.901 33.3529 212.735 32.4476 210.939 30.6363C209.152 28.8176 208.256 26.6218 208.256 24.0487ZM211.602 24.1226C211.602 25.8063 212.168 27.2361 213.296 28.412C214.432 29.5754 215.804 30.1574 217.409 30.1574C218.984 30.1574 220.332 29.5672 221.452 28.3875C222.571 27.199 223.133 25.7614 223.133 24.0732C223.133 22.3936 222.567 20.9598 221.439 19.7718C220.312 18.5833 218.951 17.9894 217.364 17.9894C215.772 17.9894 214.412 18.5714 213.284 19.7347C212.165 20.8943 211.602 22.353 211.602 24.1226ZM214.974 13.393L217.804 8.59952H221.643L217.323 13.393H214.974ZM229.871 15.212H234.175C236.422 15.212 238.002 15.7117 238.906 16.7151C239.822 17.7109 240.278 18.9317 240.278 20.3821C240.278 22.7254 239.162 24.2906 236.931 25.0856V25.0772L241.035 32.8857H237.375L233.47 25.4377H233.218V32.8857H229.871V15.212ZM233.218 18.4565V22.193H234.708C236.255 22.193 237.029 21.5663 237.029 20.3167C237.029 19.0751 236.219 18.4565 234.598 18.4565H233.218ZM243.575 15.212H246.922V32.8857H243.575V15.212ZM249.777 24.0487C249.777 21.484 250.672 19.2924 252.46 17.4734C254.255 15.6543 256.421 14.7448 258.953 14.7448C261.449 14.7448 263.579 15.6623 265.342 17.4979C267.113 19.3329 268 21.5417 268 24.1226C268 26.6709 267.113 28.8461 265.342 30.6488C263.579 32.4516 261.449 33.3529 258.953 33.3529C256.421 33.3529 254.255 32.4476 252.46 30.6363C250.672 28.8176 249.777 26.6218 249.777 24.0487ZM253.123 24.1226C253.123 25.8063 253.689 27.2361 254.817 28.412C255.953 29.5754 257.325 30.1574 258.929 30.1574C260.505 30.1574 261.852 29.5672 262.972 28.3875C264.091 27.199 264.654 25.7614 264.654 24.0732C264.654 22.3936 264.088 20.9598 262.96 19.7718C261.832 18.5833 260.472 17.9894 258.884 17.9894C257.292 17.9894 255.933 18.5714 254.804 19.7347C253.685 20.8943 253.123 22.353 253.123 24.1226Z" fill="#FEFEFE"/>
<path d="M108.841 40.4359H114.425C117.342 40.4359 119.392 41.0844 120.564 42.3874C121.753 43.6789 122.345 45.263 122.345 47.1453C122.345 50.1864 120.898 52.2171 118.002 53.2481V53.2377L123.328 63.3707H118.578L113.511 53.7057H113.184V63.3707H108.841V40.4359ZM113.184 44.6466V49.495H115.118C117.125 49.495 118.129 48.6816 118.129 47.0599C118.129 45.4491 117.077 44.6466 114.975 44.6466H113.184ZM126.91 63.3707V40.4359H139.431V44.6466H131.253V48.889H139.431V53.0997H131.253V59.1601H139.431V63.3707H126.91ZM164.38 44.2L161.315 47.2939C159.376 45.125 157.125 44.0406 154.568 44.0406C152.413 44.0406 150.558 44.7425 149.01 46.1508C147.462 47.5599 146.691 49.4416 146.691 51.8077C146.691 53.9075 147.446 55.7631 148.952 57.3899C150.458 59.0164 152.428 59.8302 154.864 59.8302C156.391 59.8302 157.659 59.5109 158.668 58.8733C159.693 58.2244 160.507 57.257 161.114 55.9705H154.616V51.7598H165.996C165.996 52.132 165.996 52.451 165.996 52.7113C165.996 55.8269 164.934 58.4849 162.81 60.6913C160.697 62.8817 157.971 63.9768 154.627 63.9768C150.949 63.9768 147.98 62.7968 145.719 60.4361C143.473 58.0757 142.348 55.1996 142.348 51.8077C142.348 48.7507 143.452 45.9915 145.661 43.5249C147.864 41.0633 150.838 39.8299 154.568 39.8299C156.581 39.8299 158.372 40.1863 159.941 40.9039C161.516 41.6164 162.995 42.7165 164.38 44.2ZM169.731 40.4359H174.074V63.3707H169.731V40.4359ZM177.778 51.9035C177.778 48.5756 178.941 45.731 181.26 43.3706C183.59 41.0105 186.4 39.8299 189.687 39.8299C192.925 39.8299 195.688 41.0209 197.976 43.4026C200.274 45.7841 201.426 48.6496 201.426 51.999C201.426 55.3058 200.274 58.1286 197.976 60.4679C195.688 62.8072 192.925 63.9768 189.687 63.9768C186.4 63.9768 183.59 62.8016 181.26 60.4521C178.941 58.0914 177.778 55.242 177.778 51.9035ZM182.121 51.999C182.121 54.1837 182.855 56.0394 184.319 57.5655C185.793 59.0752 187.574 59.8302 189.655 59.8302C191.7 59.8302 193.449 59.0642 194.901 57.5333C196.354 55.9916 197.083 54.1256 197.083 51.9355C197.083 49.7555 196.349 47.8949 194.886 46.3533C193.422 44.8115 191.657 44.0406 189.597 44.0406C187.531 44.0406 185.767 44.7953 184.303 46.3054C182.85 47.8097 182.121 49.7022 182.121 51.999ZM205.51 40.4359H209.658L219.39 55.4868H219.395V40.4359H223.738V63.3707H219.59L209.859 48.3204H209.853V63.3707H205.51V40.4359ZM227.373 63.3707L236.027 40.4359H240.433L249.087 63.3707H244.596L242.805 58.5861H233.686L231.864 63.3707H227.373ZM235.324 54.3651V54.3755H241.199V54.3651L238.251 46.5284H238.256L235.324 54.3651ZM252.405 40.4359H256.748V59.1601H263.183V63.3707H252.405V40.4359Z" fill="#FEFEFE"/>
</g>
<defs>
<clipPath id="clip0_2_4">
<rect width="268" height="79" fill="white"/>
</clipPath>
</defs>
</svg>
